<svg id="Layer_1" data-name="Layer 1" xmlns="http://www.w3.org/2000/svg" viewBox="0 0 499.51 86.87"><defs><style>.cls-1{fill:#39b54a;}.cls-2{fill:blue;}.cls-2,.cls-3,.cls-4{stroke:#000;stroke-miterlimit:10;}.cls-4{fill:#ed1c24;}.cls-5{fill:#75a928;}.cls-6{fill:#bc1142;}</style></defs><title>name2Artboard 1</title><path class="cls-1" d="M60.54,34.23a33.36,33.36,0,0,0-9.91-9.71q-5.41-3.28-14.7-3.28-12.6,0-19.24,10-5.46,8.4-5.46,20.12a40,40,0,0,0,3.66,17.19Q18.55,76.37,24.51,80a23.33,23.33,0,0,0,12.2,3.61,26.71,26.71,0,0,0,7-.93q3.4-.93,6.69-6.3a23.1,23.1,0,0,0,3.17-12.6,55.65,55.65,0,0,0-.78-10.15,6.16,6.16,0,0,0-2.93-4.2c-1.5-.85-4.23-.88-8.21-.1q5.19-5.07,10.16-2.83t7,15.53q2.05,13.27,11,17.57-15.63,4.5-21.1,5.91A48,48,0,0,1,36.6,86.91q-19.23,0-29.19-12.31A32.54,32.54,0,0,1-.11,53.31,35.61,35.61,0,0,1,4.08,36.62,36.33,36.33,0,0,1,17.87,21.93a34,34,0,0,1,17.18-4.2,34,34,0,0,1,6.6.58A62.3,62.3,0,0,1,50,20.85Q58.19,24.47,60.54,34.23ZM56.25,46.34q-6.45-2.15-7.33-6.44a7.09,7.09,0,0,0-4.39-5.67q8.79.2,10.74,3.32T56.25,46.34Zm3.51,6.25q-.78-6.24,2-9.08t9.77-3c-3.12,2.48-4.66,4.92-4.59,7.33S64.58,51.81,59.76,52.59Z"/><path class="cls-1" d="M115.23,79.17c-.67,3.78-2.26,5.78-4.79,6s-4.36-.32-5.46-1.56a18,18,0,0,1-3-5.18,17.13,17.13,0,0,1-6.64,4.69,21.93,21.93,0,0,1-8.2,1.56,17.49,17.49,0,0,1-10.55-3.12,10.42,10.42,0,0,1-4.3-9,12,12,0,0,1,3.88-9.39,20.87,20.87,0,0,1,8.59-4.79,22.23,22.23,0,0,1,9.18-.58,14.94,14.94,0,0,1,8.4,4.59q1.56-9-1.17-13.19c-1.83-2.79-3.84-4.62-6.06-5.47a16.07,16.07,0,0,0-7.81-.68q-4.5.59-5.08,2.93c-.39,1.56-.26,2.48.39,2.74a1.86,1.86,0,0,0,1.76-.1q.78-.49,1.17-2.64c.91,2.87.72,4.75-.58,5.66a5.24,5.24,0,0,1-4.69.59q-2.73-.78-3.71-4.69c-.65-2.61.22-5,2.63-7.22S85.94,37,92.19,37q9.77,1.56,13.68,5.86t3.9,11.32q-2.34,22.47-1.66,24.71a3.45,3.45,0,0,0,2.74,2.64C112.2,81.76,113.67,81,115.23,79.17ZM101.17,69Q99.61,64.31,96,63.24a11.79,11.79,0,0,0-7.62.39A14.2,14.2,0,0,0,82.61,67a6.76,6.76,0,0,0-1.75,4.69,5.63,5.63,0,0,0,1.75,4.1,7.13,7.13,0,0,0,5.28,1.76,17.85,17.85,0,0,0,7.61-2A10.7,10.7,0,0,0,101.17,69ZM116,76.42q-3.51-2.34-3.71-4.3c-.13-1.31.71-3.39,2.54-6.25,1.56,1.83,2.28,3.32,2.15,4.49S116.53,73.56,116,76.42ZM118,78c1.33-1.82,2.64-2.73,3.91-2.73A15.29,15.29,0,0,0,127,74.08q-2.73,4.68-5.27,5.46A2.81,2.81,0,0,1,118,78.12L118,78Z"/><path class="cls-1" d="M130.27,77.1c-.65.2-1.5-.42-2.54-1.85a4.36,4.36,0,0,1,2.73-.78A5.13,5.13,0,0,1,132.81,76,15.34,15.34,0,0,1,130.27,77.1Zm6.64-35.45a6.83,6.83,0,0,0-5.08.39A4.44,4.44,0,0,0,129.29,46c1.57-1.43,2.88-2.15,3.91-2.15a4.74,4.74,0,0,1,3.17,1.37,8.58,8.58,0,0,1,2.35,4.39q.78,3,.19,14.65T136.37,78L134,75.64q1.17,4.5-.78,6.93c-1.11.72-2.81,1.66-5.08,2.83h22.9c-2-1.17-3.56-2.05-4.64-2.63a4.82,4.82,0,0,1-2.2-2.15A37,37,0,0,1,142,73.25a28.18,28.18,0,0,1,.53-12.75q1.77-7.32,4-10.89a11.74,11.74,0,0,1,4.69-4.68,4.27,4.27,0,0,1,4.29,0c1.24.79,1.6,2.25,1.08,4.4a4,4,0,0,0,3-1.32,4.51,4.51,0,0,0,1.27-3.27A5,5,0,0,0,159.15,41a6.25,6.25,0,0,0-4.4-1.61q-6,0-11.52,10.06Q139.65,42.44,136.91,41.65ZM134,71.17q.78-1-.39-4.11-2.73,1.77-2.54,3.42c.13,1.11,1,2.44,2.54,4C133.37,72.9,133.46,71.8,134,71.17Z"/><path class="cls-1" d="M193.06,80.33a21,21,0,0,1-6.35,5A15.66,15.66,0,0,1,180,86.79q-7.33,0-12.8-6.1t-5.47-15.77a28.29,28.29,0,0,1,6.06-17.53q6.06-8,15.53-8a13.21,13.21,0,0,1,9.76,3.81V34.8a63.89,63.89,0,0,0-.39-9.38A4.2,4.2,0,0,0,191.5,23a3,3,0,0,0-1.95-.63,13.82,13.82,0,0,1-4-1,12.65,12.65,0,0,1,10.74-.1q0-5.07,5.08-10.55a207.71,207.71,0,0,0-4.49,30.08,134.34,134.34,0,0,0,.59,26.37q1.56,12.3,3.81,12.7a20.47,20.47,0,0,0,3.32.39,10.6,10.6,0,0,0,3.51-.79Q198.65,93.62,193.06,80.33ZM192,53.76q-2.15-8.58-4.54-10a9.54,9.54,0,0,0-4.74-1.36c-2.8,0-5.34,1.26-7.62,3.8q-4.4,5.09-4.39,14.85T175,76.14q4.29,5.22,9.47,5.22,4.49,0,6.59-6.79T192,53.76Zm6.64-43.36Q197.07,4.55,195.31,4a19.68,19.68,0,0,0-5.67-.59A15.67,15.67,0,0,0,192,7.86C192.77,8.78,195,9.62,198.63,10.4Zm3.51-.39c-.52-3.38-.39-5.6.39-6.64s2.74-1.95,5.86-2.73c-.78,3.12-1.49,5.08-2.14,5.86A27.52,27.52,0,0,1,202.14,10Z"/><path class="cls-1" d="M247.37,44.78q2.73,4.09,1.17,11.91t-1.17,11.53a21.05,21.05,0,0,0,1.56,6.34,10.43,10.43,0,0,0,2.24,3.61c.71.62,1.33,1.14,1.85,1.56a3.18,3.18,0,0,0,2.1.64,8.37,8.37,0,0,0,3.18-.79q-5.87,8.4-9.48,4.69c-2.41-2.47-4.26-3.16-5.56-2a19.88,19.88,0,0,1-6.84,3.13,29.69,29.69,0,0,1-8.2,1.46,15.77,15.77,0,0,1-7.28-1.76,11.14,11.14,0,0,1-5.22-6.15,17.18,17.18,0,0,1-.39-10.35q1.36-6,2.44-11.72c.71-3.81.81-6.65.29-8.5a6.65,6.65,0,0,0-4-5.27q-1.37-.68-4.88-2.34,9.85.2,12,4.88l.39-2.73a25.12,25.12,0,0,1,2.15,16.5A70,70,0,0,0,222,70.6q.19,5.28,2.83,7.81c1.76,1.7,4.26,2.51,7.52,2.44a11.21,11.21,0,0,0,4.74-1.31,25,25,0,0,0,6.3-5,22.89,22.89,0,0,1-.2-16.12q2.83-8.3,2.34-10.64A5.71,5.71,0,0,0,242.76,44a13.1,13.1,0,0,0-6.64-1.51Q245,42,247.37,44.78ZM221.59,42a15.88,15.88,0,0,1-1.17-4.1c0-.65,1.17-1.62,3.51-2.93a15.15,15.15,0,0,1-.1,4.2A7.07,7.07,0,0,1,221.58,42Z"/><path class="cls-1" d="M296,49.17q9.29-9.27,16.41-9.27a10.76,10.76,0,0,1,6.25,1.8,12.19,12.19,0,0,1,4.2,6,28.2,28.2,0,0,1,1.07,9q-7.62,19.83-6.44,22.86t2.73,3.71a3.77,3.77,0,0,0,3.32-.2c1.17-.58,2-2.25,2.54-5,.78,3.65.29,5.89-1.46,6.74a7,7,0,0,1-4.69.78c-1.37-.32-2.9-1.53-4.59-3.61s-1.56-7.46.39-16.12,1.94-14.16-.05-16.5a8.77,8.77,0,0,0-6.79-3.52,15.63,15.63,0,0,0-10.48,4.07q-4.74,4.1-5.82,11.62t.59,11.81a28.94,28.94,0,0,0,3.57,6.84,12.37,12.37,0,0,0,3.07,3.22q1.17.69,4.88,2.44H282.37q4.39-1.75,5.61-3.51c.82-1.17,1.22-3.39,1.22-6.64a26.77,26.77,0,0,1-1.07-12.5,31.19,31.19,0,0,1,3.32-10.26q2.34-4.2,1.17-6a3.9,3.9,0,0,0-2.73-2c-1-.13-2,.72-2.93,2.54q1-4.68,7-3.12C295.05,41.7,295.7,43.27,296,49.17Zm29.69,28.91a12.19,12.19,0,0,0-2.73-2.73c-.53-.26-1.44,0-2.74.78a13.34,13.34,0,0,1,1.95,1.56c.53.48,1.7.6,3.52.34Zm.39-.78c-1-1.56-1.53-2.73-1.46-3.52a13.84,13.84,0,0,0-.1-2.73c1.56.52,2.41,1.3,2.54,2.34a7.17,7.17,0,0,1-1,3.86Z"/><path class="cls-1" d="M267.54,28.76q-1,8.2,2.84,18t2.05,28.52a16.13,16.13,0,0,0,.63,5.61,4.41,4.41,0,0,0,1.81,2.1q1.17.69,4.39,2.44H257.48c2.22-1.17,3.7-2,4.45-2.39a4.26,4.26,0,0,0,1.76-2.1c.42-1,1.36-4.38,2.83-10.2s2-10.76,1.51-14.8-1.56-6.72-3.32-8-3.08-2-3.95-2a12.58,12.58,0,0,1-4-1q8.4-1.08,11.91,1.46A31.39,31.39,0,0,1,267.54,28.76Z"/><path class="cls-1" d="M354.29,38.92q6.34.49,13.28,7.81a28.37,28.37,0,0,1,1.52,27.64,20.37,20.37,0,0,1-19.19,12.4,20.09,20.09,0,0,1-16.31-7.6,31.91,31.91,0,0,1-5.47-14.84A26.13,26.13,0,0,1,331.05,51a21.51,21.51,0,0,1,8.59-8.79Q345.12,39.18,354.29,38.92Zm3.13,1.17q-8.79,1-13.38,4.3a19.54,19.54,0,0,0-6.54,7.52,24.08,24.08,0,0,0-2,10.25,17.29,17.29,0,0,0,3.42,10.65,15.36,15.36,0,0,0,9.67,5.86,18.34,18.34,0,0,0,12-1.5q5.67-2.73,7.91-10.25A22.71,22.71,0,0,0,362.11,43c-2.87-2.45-4.43-3.41-4.69-2.9Zm8.2,8.2c-1.33-2.21-2.77-3.44-4.3-3.71a11.46,11.46,0,0,0-5.86,1c2.48.52,3.94,1,4.4,1.56s2.37.9,5.76,1.15Zm-3.91-7q-3.51-2.34-3.51-3.9a16.55,16.55,0,0,1,.78-4.3,23.82,23.82,0,0,0,2.25,3.22c.71.86.88,2.48.48,4.95Z"/><path class="cls-1" d="M443.26,78.76A24.32,24.32,0,0,0,454.1,85.4H425.78q6.74-1.84,8.1-4c.91-1.43,1.83-4.51,2.74-9.23s1.3-14.22,1.17-28.42-1.18-22.14-3.13-23.83-3.87-2.17-5.76-1.46-2.7,2.7-2.44,6q-3.7-6.45,2.15-8.5t11.91,5.37A28.22,28.22,0,0,1,452.68,19a36.78,36.78,0,0,1,11.43,2,19.5,19.5,0,0,1,8.64,6.2,15.85,15.85,0,0,1,3.51,10.3,17.33,17.33,0,0,1-5.37,13.19q-5.37,5.07-15.13,5.07a28.31,28.31,0,0,0-6.35.79,10.54,10.54,0,0,0-5.27,3.9Q441.5,63.73,443.26,78.76Zm-2.74-60.54q-1.95-7-.19-9.67t8.4-5.18q1.17,6.65-2.25,9a24.18,24.18,0,0,0-6,5.85Zm2.74,35.15a20.83,20.83,0,0,1,7.91-2.2c2.67-.2,4.94-.33,6.83-.39A10.91,10.91,0,0,0,464.16,48q3.31-2.64,3.71-8.49A17.82,17.82,0,0,0,466.3,30a11.37,11.37,0,0,0-5.37-5.28,15.6,15.6,0,0,0-7.32-1.37A13,13,0,0,0,445.8,27q-3.92,3.42-5,10.74t2.46,15.68Z"/><path class="cls-1" d="M487.79,28.76q-1,8.2,2.83,18t2,28.52q0,4.2.64,5.61a4.39,4.39,0,0,0,1.8,2.1q1.17.69,4.4,2.44H477.73c2.21-1.17,3.69-2,4.44-2.39a4.12,4.12,0,0,0,1.76-2.1c.42-1,1.37-4.38,2.83-10.2s2-10.76,1.52-14.8-1.57-6.72-3.32-8-3.08-2-4-2a12.58,12.58,0,0,1-4-1c5.59-.72,9.57-.23,11.91,1.46A31.47,31.47,0,0,1,487.79,28.76Z"/><path class="cls-2" d="M239.62,17.83c0,13.43,17.86,18.82,27.6,6.42a1.35,1.35,0,0,1,1.9-.21,1,1,0,0,1,.21.21c10,12.82,27.11,6.55,27.11-6.43s-17-19.53-27.08-6.48a1.35,1.35,0,0,1-1.89.25,1.18,1.18,0,0,1-.25-.25c-9.61-12.9-27.6-6.92-27.6,6.5Zm5.12,0c0-9.91,13.76-13.17,20.46-.67a1.39,1.39,0,0,1,0,1.34c-6.85,11.88-20.44,9.24-20.44-.67Zm26.7.61a1.42,1.42,0,0,1,0-1.21c6.09-12.73,20.37-9,20.21.6C291.64,27.44,277.37,30.54,271.44,18.44Z"/><path class="cls-3" d="M251.39,16.39h5.76a1.36,1.36,0,0,1,1.36,1.36h0a1.36,1.36,0,0,1-1.36,1.36h-5.76A1.36,1.36,0,0,1,250,17.75h0A1.36,1.36,0,0,1,251.39,16.39Z"/><path class="cls-4" d="M279.37,19.11h-.16a1.36,1.36,0,0,1-1.36-1.36v-.16a1.36,1.36,0,0,1,1.36-1.36h.16a1.36,1.36,0,0,0,1.36-1.36v-.16a1.36,1.36,0,0,1,1.36-1.36h.16a1.36,1.36,0,0,1,1.36,1.36v.16A1.36,1.36,0,0,0,285,16.23h0a1.36,1.36,0,0,1,1.36,1.36v.16A1.36,1.36,0,0,1,285,19.11h0a1.36,1.36,0,0,0-1.36,1.36h0a1.36,1.36,0,0,1-1.36,1.36h-.16a1.36,1.36,0,0,1-1.36-1.36h0A1.36,1.36,0,0,0,279.37,19.11Z"/><path d="M482.6,0a.74.74,0,0,0-.47.2,1.1,1.1,0,0,0-1.24.11c-.58-.07-.77.08-.91.26-.13,0-1-.13-1.34.44-.95-.11-1.25.56-.91,1.19a.81.81,0,0,0,0,1.16h0c-.16.32-.06.67.32,1.09a.92.92,0,0,0,.45,1c-.07.61.56,1,.75,1.1.07.36.22.7.95.88.11.54.55.63,1,.74a4.55,4.55,0,0,0-2.57,4.47l-.2.36a4.41,4.41,0,0,0-1.16,6.13,5.45,5.45,0,0,0,.37.47,12.81,12.81,0,0,0,.61,2,4.84,4.84,0,0,0,3,3.85,10,10,0,0,0,2.88,1.64,4.75,4.75,0,0,0,3.55,1.59,7.86,7.86,0,0,0,3.6-1.59,10.09,10.09,0,0,0,2.89-1.64,4.81,4.81,0,0,0,3-3.85,11.82,11.82,0,0,0,.61-2,4.41,4.41,0,0,0-.29-6.22,5.85,5.85,0,0,0-.49-.38l-.2-.36a4.56,4.56,0,0,0-2.57-4.47c.42-.11.85-.2,1-.74.72-.18.87-.52.94-.88.19-.13.82-.49.76-1.1a.93.93,0,0,0,.45-1c.38-.42.48-.77.32-1.09a.83.83,0,0,0,.06-1.17c.34-.63,0-1.3-.92-1.19-.38-.57-1.21-.44-1.33-.44-.15-.18-.34-.33-.92-.26a1.09,1.09,0,0,0-1.28-.14c-.51-.41-.86-.08-1.25,0-.62-.2-.76.08-1.07.19-.68-.14-.89.17-1.21.5h-.38a4.34,4.34,0,0,0-1.72,2.47A4.34,4.34,0,0,0,486,.86h-.38c-.33-.33-.53-.64-1.21-.5C484.12.25,484,0,483.35.17a2.3,2.3,0,0,0-.77-.24"/><path class="cls-5" d="M480.56,2.66a18.8,18.8,0,0,1,5.18,3.51C485.29,8,483,8,482.13,8a.69.69,0,0,0,.37-.32c-.22-.15-1,0-1.5-.31a.49.49,0,0,0,.39-.24A4.18,4.18,0,0,1,480,6.56a.79.79,0,0,0,.56-.12,5.12,5.12,0,0,1-1.3-.8c.23,0,.48,0,.56-.08a4.79,4.79,0,0,1-1-.85h.54a4,4,0,0,1-.89-1,.62.62,0,0,0,.62,0c-.11-.23-.56-.37-.82-.92a1.42,1.42,0,0,0,.58,0,2.66,2.66,0,0,0-.52-1,7.28,7.28,0,0,0,1.32,0l-.33-.34a2.6,2.6,0,0,1,1.46.15c.17-.14,0-.32-.22-.5a5.08,5.08,0,0,1,1.22.31c.19-.18-.13-.36-.29-.53a3.09,3.09,0,0,1,1.28.5c.21-.2,0-.38-.13-.55a3,3,0,0,1,1.07.69c.1-.13.25-.23.07-.54a2.45,2.45,0,0,1,.85.75c.23-.15.14-.35.14-.53a7.35,7.35,0,0,1,.93,1,.84.84,0,0,0,.16-.43c.92.89,2.22,3.13.33,4a17.78,17.78,0,0,0-5.63-3h0"/><path class="cls-5" d="M495,2.66a18.44,18.44,0,0,0-5.18,3.51C490.29,8,492.6,8,493.45,8a.65.65,0,0,1-.37-.32c.22-.15,1,0,1.5-.31a.52.52,0,0,1-.4-.24,4.09,4.09,0,0,0,1.35-.55.76.76,0,0,1-.55-.12,5.06,5.06,0,0,0,1.29-.8c-.23,0-.48,0-.55-.08a5.42,5.42,0,0,0,1-.85h-.54a4,4,0,0,0,.89-1,.62.62,0,0,1-.62,0c.11-.23.55-.37.81-.92a1.37,1.37,0,0,1-.57,0,3,3,0,0,1,.51-1,7.17,7.17,0,0,1-1.31,0l.33-.34a2.6,2.6,0,0,0-1.46.15c-.17-.14,0-.32.22-.5a5.08,5.08,0,0,0-1.22.31c-.19-.18.13-.36.28-.53a3.05,3.05,0,0,0-1.27.5c-.21-.21,0-.38.13-.55a3.16,3.16,0,0,0-1.08.69c-.09-.13-.24-.23-.06-.54a2.58,2.58,0,0,0-.86.75c-.23-.15-.13-.35-.13-.53a7.35,7.35,0,0,0-.93,1,.73.73,0,0,1-.16-.43c-.92.89-2.22,3.13-.34,4a17.72,17.72,0,0,1,5.64-3h0"/><path class="cls-6" d="M491.09,20.8a3.28,3.28,0,0,1-6.53,0h0a3.28,3.28,0,0,1,6.53,0h0"/><path class="cls-6" d="M485.94,12.17a3.5,3.5,0,1,1-4.62,1.76,3.2,3.2,0,0,1,.26-.48,3.25,3.25,0,0,1,4.36-1.28"/><path class="cls-6" d="M489.59,12a3.21,3.21,0,0,0-.55,4.49,3.25,3.25,0,0,0,4.36,1.28A3.51,3.51,0,0,0,489.59,12"/><path class="cls-6" d="M479.18,13.65c1.46-.39.49,6-.7,5.52a3.48,3.48,0,0,1-.07-4.92,3.4,3.4,0,0,1,.77-.6"/><path class="cls-6" d="M496.05,13.57c-1.46-.39-.49,6,.7,5.52a3.49,3.49,0,0,0,.05-4.94,3.58,3.58,0,0,0-.75-.58"/><path class="cls-6" d="M491.09,8.78c2.52-.42,4.62,1.07,4.53,3.81-.08,1-5.46-3.65-4.53-3.81"/><path class="cls-6" d="M484.13,8.7c-2.52-.42-4.62,1.07-4.54,3.81.09,1,5.47-3.65,4.54-3.81"/><path class="cls-6" d="M487.75,8.06c-1.51,0-3,1.12-3,1.79s1.19,1.65,3,1.67,3-.67,3-1.51-1.65-2-3-2h0"/><path class="cls-6" d="M487.84,24.76c1.31-.05,3.07.43,3.07,1.06s-1.59,2-3.16,2-3.21-1.33-3.19-1.81c0-.71,2-1.27,3.28-1.24"/><path class="cls-6" d="M483,21c.93,1.13,1.35,3.1.58,3.69s-2.53.26-3.8-1.57c-.86-1.53-.75-3.09-.15-3.55.9-.55,2.29.19,3.37,1.43h0"/><path class="cls-6" d="M492.5,20.64c-1,1.18-1.58,3.34-.84,4s2.6.47,4-1.47a3.7,3.7,0,0,0,.1-4.06c-.86-.66-2.1.19-3.25,1.5h0"/></svg>
